<?xml version="1.0" encoding="UTF-8"?>
<svg xmlns="http://www.w3.org/2000/svg" xmlns:xlink="http://www.w3.org/1999/xlink" width="323pt" height="168pt" viewBox="0 0 323 168" version="1.1">
<g id="surface35">
<path style="fill-rule:nonzero;fill:rgb(99.998474%,99.998474%,99.998474%);fill-opacity:1;stroke-width:0.03;stroke-linecap:square;stroke-linejoin:miter;stroke:rgb(99.998474%,99.998474%,99.998474%);stroke-opacity:1;stroke-miterlimit:3.25;" d="M 6.890625 75.242188 L 37.8125 75.242188 L 37.8125 44.320312 L 6.890625 44.320312 Z M 6.890625 75.242188 " transform="matrix(1,0,0,1,0,86)"/>
<path style="fill-rule:nonzero;fill:rgb(99.998474%,99.998474%,99.998474%);fill-opacity:1;stroke-width:0.03;stroke-linecap:square;stroke-linejoin:miter;stroke:rgb(99.998474%,99.998474%,99.998474%);stroke-opacity:1;stroke-miterlimit:3.25;" d="M 37.8125 75.242188 L 68.734375 75.242188 L 68.734375 44.320312 L 37.8125 44.320312 Z M 37.8125 75.242188 " transform="matrix(1,0,0,1,0,86)"/>
<path style="fill-rule:nonzero;fill:rgb(99.998474%,99.998474%,99.998474%);fill-opacity:1;stroke-width:0.03;stroke-linecap:square;stroke-linejoin:miter;stroke:rgb(99.998474%,99.998474%,99.998474%);stroke-opacity:1;stroke-miterlimit:3.25;" d="M 68.734375 75.242188 L 99.65625 75.242188 L 99.65625 44.320312 L 68.734375 44.320312 Z M 68.734375 75.242188 " transform="matrix(1,0,0,1,0,86)"/>
<path style="fill-rule:nonzero;fill:rgb(99.998474%,99.998474%,99.998474%);fill-opacity:1;stroke-width:0.03;stroke-linecap:square;stroke-linejoin:miter;stroke:rgb(99.998474%,99.998474%,99.998474%);stroke-opacity:1;stroke-miterlimit:3.25;" d="M 99.65625 75.242188 L 130.578125 75.242188 L 130.578125 44.320312 L 99.65625 44.320312 Z M 99.65625 75.242188 " transform="matrix(1,0,0,1,0,86)"/>
<path style="fill-rule:nonzero;fill:rgb(99.998474%,99.998474%,99.998474%);fill-opacity:1;stroke-width:0.03;stroke-linecap:square;stroke-linejoin:miter;stroke:rgb(99.998474%,99.998474%,99.998474%);stroke-opacity:1;stroke-miterlimit:3.25;" d="M 130.578125 75.242188 L 161.5 75.242188 L 161.5 44.320312 L 130.578125 44.320312 Z M 130.578125 75.242188 " transform="matrix(1,0,0,1,0,86)"/>
<path style="fill-rule:nonzero;fill:rgb(99.998474%,99.998474%,99.998474%);fill-opacity:1;stroke-width:0.03;stroke-linecap:square;stroke-linejoin:miter;stroke:rgb(99.998474%,99.998474%,99.998474%);stroke-opacity:1;stroke-miterlimit:3.25;" d="M 161.5 75.242188 L 192.421875 75.242188 L 192.421875 44.320312 L 161.5 44.320312 Z M 161.5 75.242188 " transform="matrix(1,0,0,1,0,86)"/>
<path style="fill-rule:nonzero;fill:rgb(99.998474%,99.998474%,99.998474%);fill-opacity:1;stroke-width:0.03;stroke-linecap:square;stroke-linejoin:miter;stroke:rgb(99.998474%,99.998474%,99.998474%);stroke-opacity:1;stroke-miterlimit:3.25;" d="M 192.421875 75.242188 L 223.34375 75.242188 L 223.34375 44.320312 L 192.421875 44.320312 Z M 192.421875 75.242188 " transform="matrix(1,0,0,1,0,86)"/>
<path style="fill-rule:nonzero;fill:rgb(99.998474%,99.998474%,99.998474%);fill-opacity:1;stroke-width:0.03;stroke-linecap:square;stroke-linejoin:miter;stroke:rgb(99.998474%,99.998474%,99.998474%);stroke-opacity:1;stroke-miterlimit:3.25;" d="M 223.34375 75.242188 L 254.265625 75.242188 L 254.265625 44.320312 L 223.34375 44.320312 Z M 223.34375 75.242188 " transform="matrix(1,0,0,1,0,86)"/>
<path style="fill-rule:nonzero;fill:rgb(99.998474%,99.998474%,99.998474%);fill-opacity:1;stroke-width:0.03;stroke-linecap:square;stroke-linejoin:miter;stroke:rgb(99.998474%,99.998474%,99.998474%);stroke-opacity:1;stroke-miterlimit:3.25;" d="M 254.265625 75.242188 L 285.1875 75.242188 L 285.1875 44.320312 L 254.265625 44.320312 Z M 254.265625 75.242188 " transform="matrix(1,0,0,1,0,86)"/>
<path style="fill-rule:nonzero;fill:rgb(99.998474%,99.998474%,99.998474%);fill-opacity:1;stroke-width:0.03;stroke-linecap:square;stroke-linejoin:miter;stroke:rgb(99.998474%,99.998474%,99.998474%);stroke-opacity:1;stroke-miterlimit:3.25;" d="M 285.1875 75.242188 L 316.109375 75.242188 L 316.109375 44.320312 L 285.1875 44.320312 Z M 285.1875 75.242188 " transform="matrix(1,0,0,1,0,86)"/>
<path style="fill-rule:nonzero;fill:rgb(99.998474%,99.998474%,99.998474%);fill-opacity:1;stroke-width:0.03;stroke-linecap:square;stroke-linejoin:miter;stroke:rgb(99.998474%,99.998474%,99.998474%);stroke-opacity:1;stroke-miterlimit:3.25;" d="M 6.890625 44.320312 L 37.8125 44.320312 L 37.8125 13.398438 L 6.890625 13.398438 Z M 6.890625 44.320312 " transform="matrix(1,0,0,1,0,86)"/>
<path style="fill-rule:nonzero;fill:rgb(99.998474%,99.998474%,99.998474%);fill-opacity:1;stroke-width:0.03;stroke-linecap:square;stroke-linejoin:miter;stroke:rgb(99.998474%,99.998474%,99.998474%);stroke-opacity:1;stroke-miterlimit:3.25;" d="M 37.8125 44.320312 L 68.734375 44.320312 L 68.734375 13.398438 L 37.8125 13.398438 Z M 37.8125 44.320312 " transform="matrix(1,0,0,1,0,86)"/>
<path style="fill-rule:nonzero;fill:rgb(99.998474%,99.998474%,99.998474%);fill-opacity:1;stroke-width:0.03;stroke-linecap:square;stroke-linejoin:miter;stroke:rgb(99.998474%,99.998474%,99.998474%);stroke-opacity:1;stroke-miterlimit:3.25;" d="M 68.734375 44.320312 L 99.65625 44.320312 L 99.65625 13.398438 L 68.734375 13.398438 Z M 68.734375 44.320312 " transform="matrix(1,0,0,1,0,86)"/>
<path style="fill-rule:nonzero;fill:rgb(99.998474%,99.998474%,99.998474%);fill-opacity:1;stroke-width:0.03;stroke-linecap:square;stroke-linejoin:miter;stroke:rgb(99.998474%,99.998474%,99.998474%);stroke-opacity:1;stroke-miterlimit:3.25;" d="M 99.65625 44.320312 L 130.578125 44.320312 L 130.578125 13.398438 L 99.65625 13.398438 Z M 99.65625 44.320312 " transform="matrix(1,0,0,1,0,86)"/>
<path style="fill-rule:nonzero;fill:rgb(99.998474%,99.998474%,99.998474%);fill-opacity:1;stroke-width:0.03;stroke-linecap:square;stroke-linejoin:miter;stroke:rgb(99.998474%,99.998474%,99.998474%);stroke-opacity:1;stroke-miterlimit:3.25;" d="M 130.578125 44.320312 L 161.5 44.320312 L 161.5 13.398438 L 130.578125 13.398438 Z M 130.578125 44.320312 " transform="matrix(1,0,0,1,0,86)"/>
<path style="fill-rule:nonzero;fill:rgb(99.998474%,99.998474%,99.998474%);fill-opacity:1;stroke-width:0.03;stroke-linecap:square;stroke-linejoin:miter;stroke:rgb(99.998474%,99.998474%,99.998474%);stroke-opacity:1;stroke-miterlimit:3.25;" d="M 161.5 44.320312 L 192.421875 44.320312 L 192.421875 13.398438 L 161.5 13.398438 Z M 161.5 44.320312 " transform="matrix(1,0,0,1,0,86)"/>
<path style="fill-rule:nonzero;fill:rgb(99.998474%,99.998474%,99.998474%);fill-opacity:1;stroke-width:0.03;stroke-linecap:square;stroke-linejoin:miter;stroke:rgb(99.998474%,99.998474%,99.998474%);stroke-opacity:1;stroke-miterlimit:3.25;" d="M 192.421875 44.320312 L 223.34375 44.320312 L 223.34375 13.398438 L 192.421875 13.398438 Z M 192.421875 44.320312 " transform="matrix(1,0,0,1,0,86)"/>
<path style="fill-rule:nonzero;fill:rgb(99.998474%,99.998474%,99.998474%);fill-opacity:1;stroke-width:0.03;stroke-linecap:square;stroke-linejoin:miter;stroke:rgb(99.998474%,99.998474%,99.998474%);stroke-opacity:1;stroke-miterlimit:3.25;" d="M 223.34375 44.320312 L 254.265625 44.320312 L 254.265625 13.398438 L 223.34375 13.398438 Z M 223.34375 44.320312 " transform="matrix(1,0,0,1,0,86)"/>
<path style="fill-rule:nonzero;fill:rgb(99.998474%,99.998474%,99.998474%);fill-opacity:1;stroke-width:0.03;stroke-linecap:square;stroke-linejoin:miter;stroke:rgb(99.998474%,99.998474%,99.998474%);stroke-opacity:1;stroke-miterlimit:3.25;" d="M 254.265625 44.320312 L 285.1875 44.320312 L 285.1875 13.398438 L 254.265625 13.398438 Z M 254.265625 44.320312 " transform="matrix(1,0,0,1,0,86)"/>
<path style="fill-rule:nonzero;fill:rgb(99.998474%,99.998474%,99.998474%);fill-opacity:1;stroke-width:0.03;stroke-linecap:square;stroke-linejoin:miter;stroke:rgb(99.998474%,99.998474%,99.998474%);stroke-opacity:1;stroke-miterlimit:3.25;" d="M 285.1875 44.320312 L 316.109375 44.320312 L 316.109375 13.398438 L 285.1875 13.398438 Z M 285.1875 44.320312 " transform="matrix(1,0,0,1,0,86)"/>
<path style="fill-rule:nonzero;fill:rgb(99.998474%,99.998474%,99.998474%);fill-opacity:1;stroke-width:0.03;stroke-linecap:square;stroke-linejoin:miter;stroke:rgb(99.998474%,99.998474%,99.998474%);stroke-opacity:1;stroke-miterlimit:3.25;" d="M 6.890625 13.398438 L 37.8125 13.398438 L 37.8125 -17.523438 L 6.890625 -17.523438 Z M 6.890625 13.398438 " transform="matrix(1,0,0,1,0,86)"/>
<path style="fill-rule:nonzero;fill:rgb(99.998474%,99.998474%,99.998474%);fill-opacity:1;stroke-width:0.03;stroke-linecap:square;stroke-linejoin:miter;stroke:rgb(99.998474%,99.998474%,99.998474%);stroke-opacity:1;stroke-miterlimit:3.25;" d="M 37.8125 13.398438 L 68.734375 13.398438 L 68.734375 -17.523438 L 37.8125 -17.523438 Z M 37.8125 13.398438 " transform="matrix(1,0,0,1,0,86)"/>
<path style="fill-rule:nonzero;fill:rgb(99.998474%,99.998474%,99.998474%);fill-opacity:1;stroke-width:0.03;stroke-linecap:square;stroke-linejoin:miter;stroke:rgb(99.998474%,99.998474%,99.998474%);stroke-opacity:1;stroke-miterlimit:3.25;" d="M 68.734375 13.398438 L 99.65625 13.398438 L 99.65625 -17.523438 L 68.734375 -17.523438 Z M 68.734375 13.398438 " transform="matrix(1,0,0,1,0,86)"/>
<path style="fill-rule:nonzero;fill:rgb(99.998474%,99.998474%,99.998474%);fill-opacity:1;stroke-width:0.03;stroke-linecap:square;stroke-linejoin:miter;stroke:rgb(99.998474%,99.998474%,99.998474%);stroke-opacity:1;stroke-miterlimit:3.25;" d="M 99.65625 13.398438 L 130.578125 13.398438 L 130.578125 -17.523438 L 99.65625 -17.523438 Z M 99.65625 13.398438 " transform="matrix(1,0,0,1,0,86)"/>
<path style="fill-rule:nonzero;fill:rgb(99.998474%,99.998474%,99.998474%);fill-opacity:1;stroke-width:0.03;stroke-linecap:square;stroke-linejoin:miter;stroke:rgb(99.998474%,99.998474%,99.998474%);stroke-opacity:1;stroke-miterlimit:3.25;" d="M 130.578125 13.398438 L 161.5 13.398438 L 161.5 -17.523438 L 130.578125 -17.523438 Z M 130.578125 13.398438 " transform="matrix(1,0,0,1,0,86)"/>
<path style="fill-rule:nonzero;fill:rgb(99.998474%,99.998474%,99.998474%);fill-opacity:1;stroke-width:0.03;stroke-linecap:square;stroke-linejoin:miter;stroke:rgb(99.998474%,99.998474%,99.998474%);stroke-opacity:1;stroke-miterlimit:3.25;" d="M 161.5 13.398438 L 192.421875 13.398438 L 192.421875 -17.523438 L 161.5 -17.523438 Z M 161.5 13.398438 " transform="matrix(1,0,0,1,0,86)"/>
<path style="fill-rule:nonzero;fill:rgb(99.998474%,99.998474%,99.998474%);fill-opacity:1;stroke-width:0.03;stroke-linecap:square;stroke-linejoin:miter;stroke:rgb(99.998474%,99.998474%,99.998474%);stroke-opacity:1;stroke-miterlimit:3.25;" d="M 192.421875 13.398438 L 223.34375 13.398438 L 223.34375 -17.523438 L 192.421875 -17.523438 Z M 192.421875 13.398438 " transform="matrix(1,0,0,1,0,86)"/>
<path style="fill-rule:nonzero;fill:rgb(99.998474%,99.998474%,99.998474%);fill-opacity:1;stroke-width:0.03;stroke-linecap:square;stroke-linejoin:miter;stroke:rgb(99.998474%,99.998474%,99.998474%);stroke-opacity:1;stroke-miterlimit:3.25;" d="M 223.34375 13.398438 L 254.265625 13.398438 L 254.265625 -17.523438 L 223.34375 -17.523438 Z M 223.34375 13.398438 " transform="matrix(1,0,0,1,0,86)"/>
<path style="fill-rule:nonzero;fill:rgb(99.998474%,99.998474%,99.998474%);fill-opacity:1;stroke-width:0.03;stroke-linecap:square;stroke-linejoin:miter;stroke:rgb(99.998474%,99.998474%,99.998474%);stroke-opacity:1;stroke-miterlimit:3.25;" d="M 254.265625 13.398438 L 285.1875 13.398438 L 285.1875 -17.523438 L 254.265625 -17.523438 Z M 254.265625 13.398438 " transform="matrix(1,0,0,1,0,86)"/>
<path style="fill-rule:nonzero;fill:rgb(99.998474%,99.998474%,99.998474%);fill-opacity:1;stroke-width:0.03;stroke-linecap:square;stroke-linejoin:miter;stroke:rgb(99.998474%,99.998474%,99.998474%);stroke-opacity:1;stroke-miterlimit:3.25;" d="M 285.1875 13.398438 L 316.109375 13.398438 L 316.109375 -17.523438 L 285.1875 -17.523438 Z M 285.1875 13.398438 " transform="matrix(1,0,0,1,0,86)"/>
<path style="fill-rule:nonzero;fill:rgb(99.998474%,99.998474%,99.998474%);fill-opacity:1;stroke-width:0.03;stroke-linecap:square;stroke-linejoin:miter;stroke:rgb(99.998474%,99.998474%,99.998474%);stroke-opacity:1;stroke-miterlimit:3.25;" d="M 6.890625 -17.523438 L 37.8125 -17.523438 L 37.8125 -48.445312 L 6.890625 -48.445312 Z M 6.890625 -17.523438 " transform="matrix(1,0,0,1,0,86)"/>
<path style="fill-rule:nonzero;fill:rgb(99.998474%,99.998474%,99.998474%);fill-opacity:1;stroke-width:0.03;stroke-linecap:square;stroke-linejoin:miter;stroke:rgb(99.998474%,99.998474%,99.998474%);stroke-opacity:1;stroke-miterlimit:3.25;" d="M 37.8125 -17.523438 L 68.734375 -17.523438 L 68.734375 -48.445312 L 37.8125 -48.445312 Z M 37.8125 -17.523438 " transform="matrix(1,0,0,1,0,86)"/>
<path style="fill-rule:nonzero;fill:rgb(99.998474%,99.998474%,99.998474%);fill-opacity:1;stroke-width:0.03;stroke-linecap:square;stroke-linejoin:miter;stroke:rgb(99.998474%,99.998474%,99.998474%);stroke-opacity:1;stroke-miterlimit:3.25;" d="M 68.734375 -17.523438 L 99.65625 -17.523438 L 99.65625 -48.445312 L 68.734375 -48.445312 Z M 68.734375 -17.523438 " transform="matrix(1,0,0,1,0,86)"/>
<path style="fill-rule:nonzero;fill:rgb(99.998474%,99.998474%,99.998474%);fill-opacity:1;stroke-width:0.03;stroke-linecap:square;stroke-linejoin:miter;stroke:rgb(99.998474%,99.998474%,99.998474%);stroke-opacity:1;stroke-miterlimit:3.25;" d="M 99.65625 -17.523438 L 130.578125 -17.523438 L 130.578125 -48.445312 L 99.65625 -48.445312 Z M 99.65625 -17.523438 " transform="matrix(1,0,0,1,0,86)"/>
<path style="fill-rule:nonzero;fill:rgb(99.998474%,99.998474%,99.998474%);fill-opacity:1;stroke-width:0.03;stroke-linecap:square;stroke-linejoin:miter;stroke:rgb(99.998474%,99.998474%,99.998474%);stroke-opacity:1;stroke-miterlimit:3.25;" d="M 130.578125 -17.523438 L 161.5 -17.523438 L 161.5 -48.445312 L 130.578125 -48.445312 Z M 130.578125 -17.523438 " transform="matrix(1,0,0,1,0,86)"/>
<path style="fill-rule:nonzero;fill:rgb(99.998474%,99.998474%,99.998474%);fill-opacity:1;stroke-width:0.03;stroke-linecap:square;stroke-linejoin:miter;stroke:rgb(99.998474%,99.998474%,99.998474%);stroke-opacity:1;stroke-miterlimit:3.25;" d="M 161.5 -17.523438 L 192.421875 -17.523438 L 192.421875 -48.445312 L 161.5 -48.445312 Z M 161.5 -17.523438 " transform="matrix(1,0,0,1,0,86)"/>
<path style="fill-rule:nonzero;fill:rgb(99.998474%,99.998474%,99.998474%);fill-opacity:1;stroke-width:0.03;stroke-linecap:square;stroke-linejoin:miter;stroke:rgb(99.998474%,99.998474%,99.998474%);stroke-opacity:1;stroke-miterlimit:3.25;" d="M 192.421875 -17.523438 L 223.34375 -17.523438 L 223.34375 -48.445312 L 192.421875 -48.445312 Z M 192.421875 -17.523438 " transform="matrix(1,0,0,1,0,86)"/>
<path style="fill-rule:nonzero;fill:rgb(99.998474%,99.998474%,99.998474%);fill-opacity:1;stroke-width:0.03;stroke-linecap:square;stroke-linejoin:miter;stroke:rgb(99.998474%,99.998474%,99.998474%);stroke-opacity:1;stroke-miterlimit:3.25;" d="M 223.34375 -17.523438 L 254.265625 -17.523438 L 254.265625 -48.445312 L 223.34375 -48.445312 Z M 223.34375 -17.523438 " transform="matrix(1,0,0,1,0,86)"/>
<path style="fill-rule:nonzero;fill:rgb(99.998474%,99.998474%,99.998474%);fill-opacity:1;stroke-width:0.03;stroke-linecap:square;stroke-linejoin:miter;stroke:rgb(99.998474%,99.998474%,99.998474%);stroke-opacity:1;stroke-miterlimit:3.25;" d="M 254.265625 -17.523438 L 285.1875 -17.523438 L 285.1875 -48.445312 L 254.265625 -48.445312 Z M 254.265625 -17.523438 " transform="matrix(1,0,0,1,0,86)"/>
<path style="fill-rule:nonzero;fill:rgb(99.998474%,99.998474%,99.998474%);fill-opacity:1;stroke-width:0.03;stroke-linecap:square;stroke-linejoin:miter;stroke:rgb(99.998474%,99.998474%,99.998474%);stroke-opacity:1;stroke-miterlimit:3.25;" d="M 285.1875 -17.523438 L 316.109375 -17.523438 L 316.109375 -48.445312 L 285.1875 -48.445312 Z M 285.1875 -17.523438 " transform="matrix(1,0,0,1,0,86)"/>
<path style="fill-rule:nonzero;fill:rgb(99.998474%,99.998474%,99.998474%);fill-opacity:1;stroke-width:0.03;stroke-linecap:square;stroke-linejoin:miter;stroke:rgb(99.998474%,99.998474%,99.998474%);stroke-opacity:1;stroke-miterlimit:3.25;" d="M 6.890625 -48.445312 L 37.8125 -48.445312 L 37.8125 -79.367188 L 6.890625 -79.367188 Z M 6.890625 -48.445312 " transform="matrix(1,0,0,1,0,86)"/>
<path style="fill-rule:nonzero;fill:rgb(0%,0%,0%);fill-opacity:1;stroke-width:0.03;stroke-linecap:square;stroke-linejoin:miter;stroke:rgb(0%,0%,0%);stroke-opacity:1;stroke-miterlimit:3.25;" d="M 37.8125 -48.445312 L 68.734375 -48.445312 L 68.734375 -79.367188 L 37.8125 -79.367188 Z M 37.8125 -48.445312 " transform="matrix(1,0,0,1,0,86)"/>
<path style="fill-rule:nonzero;fill:rgb(99.998474%,99.998474%,99.998474%);fill-opacity:1;stroke-width:0.03;stroke-linecap:square;stroke-linejoin:miter;stroke:rgb(99.998474%,99.998474%,99.998474%);stroke-opacity:1;stroke-miterlimit:3.25;" d="M 68.734375 -48.445312 L 99.65625 -48.445312 L 99.65625 -79.367188 L 68.734375 -79.367188 Z M 68.734375 -48.445312 " transform="matrix(1,0,0,1,0,86)"/>
<path style="fill-rule:nonzero;fill:rgb(0%,0%,0%);fill-opacity:1;stroke-width:0.03;stroke-linecap:square;stroke-linejoin:miter;stroke:rgb(0%,0%,0%);stroke-opacity:1;stroke-miterlimit:3.25;" d="M 99.65625 -48.445312 L 130.578125 -48.445312 L 130.578125 -79.367188 L 99.65625 -79.367188 Z M 99.65625 -48.445312 " transform="matrix(1,0,0,1,0,86)"/>
<path style="fill-rule:nonzero;fill:rgb(99.998474%,99.998474%,99.998474%);fill-opacity:1;stroke-width:0.03;stroke-linecap:square;stroke-linejoin:miter;stroke:rgb(99.998474%,99.998474%,99.998474%);stroke-opacity:1;stroke-miterlimit:3.25;" d="M 130.578125 -48.445312 L 161.5 -48.445312 L 161.5 -79.367188 L 130.578125 -79.367188 Z M 130.578125 -48.445312 " transform="matrix(1,0,0,1,0,86)"/>
<path style="fill-rule:nonzero;fill:rgb(99.998474%,99.998474%,99.998474%);fill-opacity:1;stroke-width:0.03;stroke-linecap:square;stroke-linejoin:miter;stroke:rgb(99.998474%,99.998474%,99.998474%);stroke-opacity:1;stroke-miterlimit:3.25;" d="M 161.5 -48.445312 L 192.421875 -48.445312 L 192.421875 -79.367188 L 161.5 -79.367188 Z M 161.5 -48.445312 " transform="matrix(1,0,0,1,0,86)"/>
<path style="fill-rule:nonzero;fill:rgb(99.998474%,99.998474%,99.998474%);fill-opacity:1;stroke-width:0.03;stroke-linecap:square;stroke-linejoin:miter;stroke:rgb(99.998474%,99.998474%,99.998474%);stroke-opacity:1;stroke-miterlimit:3.25;" d="M 192.421875 -48.445312 L 223.34375 -48.445312 L 223.34375 -79.367188 L 192.421875 -79.367188 Z M 192.421875 -48.445312 " transform="matrix(1,0,0,1,0,86)"/>
<path style="fill-rule:nonzero;fill:rgb(99.998474%,99.998474%,99.998474%);fill-opacity:1;stroke-width:0.03;stroke-linecap:square;stroke-linejoin:miter;stroke:rgb(99.998474%,99.998474%,99.998474%);stroke-opacity:1;stroke-miterlimit:3.25;" d="M 223.34375 -48.445312 L 254.265625 -48.445312 L 254.265625 -79.367188 L 223.34375 -79.367188 Z M 223.34375 -48.445312 " transform="matrix(1,0,0,1,0,86)"/>
<path style="fill-rule:nonzero;fill:rgb(0%,0%,0%);fill-opacity:1;stroke-width:0.03;stroke-linecap:square;stroke-linejoin:miter;stroke:rgb(0%,0%,0%);stroke-opacity:1;stroke-miterlimit:3.25;" d="M 254.265625 -48.445312 L 285.1875 -48.445312 L 285.1875 -79.367188 L 254.265625 -79.367188 Z M 254.265625 -48.445312 " transform="matrix(1,0,0,1,0,86)"/>
<path style="fill-rule:nonzero;fill:rgb(0%,0%,0%);fill-opacity:1;stroke-width:0.03;stroke-linecap:square;stroke-linejoin:miter;stroke:rgb(0%,0%,0%);stroke-opacity:1;stroke-miterlimit:3.25;" d="M 285.1875 -48.445312 L 316.109375 -48.445312 L 316.109375 -79.367188 L 285.1875 -79.367188 Z M 285.1875 -48.445312 " transform="matrix(1,0,0,1,0,86)"/>
<path style="fill:none;stroke-width:0.45;stroke-linecap:square;stroke-linejoin:miter;stroke:rgb(39.99939%,39.99939%,39.99939%);stroke-opacity:1;stroke-miterlimit:3.25;" d="M 381.550781 171.425781 L 59.449219 171.425781 " transform="matrix(1,0,0,1,-59,-4)"/>
<path style="fill:none;stroke-width:0.45;stroke-linecap:square;stroke-linejoin:miter;stroke:rgb(39.99939%,39.99939%,39.99939%);stroke-opacity:1;stroke-miterlimit:3.25;" d="M 59.449219 171.425781 L 59.449219 4.449219 " transform="matrix(1,0,0,1,-59,-4)"/>
<path style="fill:none;stroke-width:0.45;stroke-linecap:square;stroke-linejoin:miter;stroke:rgb(39.99939%,39.99939%,39.99939%);stroke-opacity:1;stroke-miterlimit:3.25;" d="M 59.449219 4.449219 L 381.550781 4.449219 " transform="matrix(1,0,0,1,-59,-4)"/>
<path style="fill:none;stroke-width:0.45;stroke-linecap:square;stroke-linejoin:miter;stroke:rgb(39.99939%,39.99939%,39.99939%);stroke-opacity:1;stroke-miterlimit:3.25;" d="M 381.550781 4.449219 L 381.550781 171.425781 " transform="matrix(1,0,0,1,-59,-4)"/>
</g>
</svg>
