<?xml version="1.0" encoding="UTF-8"?>
<svg xmlns="http://www.w3.org/2000/svg" xmlns:xlink="http://www.w3.org/1999/xlink" width="323pt" height="91pt" viewBox="0 0 323 91" version="1.1">
<g id="surface49">
<path style="fill-rule:nonzero;fill:rgb(99.998474%,99.998474%,99.998474%);fill-opacity:1;stroke-width:0.03;stroke-linecap:square;stroke-linejoin:miter;stroke:rgb(99.998474%,99.998474%,99.998474%);stroke-opacity:1;stroke-miterlimit:3.25;" d="M 6.890625 35.9375 L 22.351562 35.9375 L 22.351562 20.476562 L 6.890625 20.476562 Z M 6.890625 35.9375 " transform="matrix(1,0,0,1,0,48)"/>
<path style="fill-rule:nonzero;fill:rgb(99.998474%,99.998474%,99.998474%);fill-opacity:1;stroke-width:0.03;stroke-linecap:square;stroke-linejoin:miter;stroke:rgb(99.998474%,99.998474%,99.998474%);stroke-opacity:1;stroke-miterlimit:3.25;" d="M 22.351562 35.9375 L 37.8125 35.9375 L 37.8125 20.476562 L 22.351562 20.476562 Z M 22.351562 35.9375 " transform="matrix(1,0,0,1,0,48)"/>
<path style="fill-rule:nonzero;fill:rgb(99.998474%,99.998474%,99.998474%);fill-opacity:1;stroke-width:0.03;stroke-linecap:square;stroke-linejoin:miter;stroke:rgb(99.998474%,99.998474%,99.998474%);stroke-opacity:1;stroke-miterlimit:3.25;" d="M 37.8125 35.9375 L 53.273438 35.9375 L 53.273438 20.476562 L 37.8125 20.476562 Z M 37.8125 35.9375 " transform="matrix(1,0,0,1,0,48)"/>
<path style="fill-rule:nonzero;fill:rgb(99.998474%,99.998474%,99.998474%);fill-opacity:1;stroke-width:0.03;stroke-linecap:square;stroke-linejoin:miter;stroke:rgb(99.998474%,99.998474%,99.998474%);stroke-opacity:1;stroke-miterlimit:3.25;" d="M 53.273438 35.9375 L 68.734375 35.9375 L 68.734375 20.476562 L 53.273438 20.476562 Z M 53.273438 35.9375 " transform="matrix(1,0,0,1,0,48)"/>
<path style="fill-rule:nonzero;fill:rgb(99.998474%,99.998474%,99.998474%);fill-opacity:1;stroke-width:0.03;stroke-linecap:square;stroke-linejoin:miter;stroke:rgb(99.998474%,99.998474%,99.998474%);stroke-opacity:1;stroke-miterlimit:3.25;" d="M 68.734375 35.9375 L 84.195312 35.9375 L 84.195312 20.476562 L 68.734375 20.476562 Z M 68.734375 35.9375 " transform="matrix(1,0,0,1,0,48)"/>
<path style="fill-rule:nonzero;fill:rgb(99.998474%,99.998474%,99.998474%);fill-opacity:1;stroke-width:0.03;stroke-linecap:square;stroke-linejoin:miter;stroke:rgb(99.998474%,99.998474%,99.998474%);stroke-opacity:1;stroke-miterlimit:3.25;" d="M 84.195312 35.9375 L 99.65625 35.9375 L 99.65625 20.476562 L 84.195312 20.476562 Z M 84.195312 35.9375 " transform="matrix(1,0,0,1,0,48)"/>
<path style="fill-rule:nonzero;fill:rgb(99.998474%,99.998474%,99.998474%);fill-opacity:1;stroke-width:0.03;stroke-linecap:square;stroke-linejoin:miter;stroke:rgb(99.998474%,99.998474%,99.998474%);stroke-opacity:1;stroke-miterlimit:3.25;" d="M 99.65625 35.9375 L 115.117188 35.9375 L 115.117188 20.476562 L 99.65625 20.476562 Z M 99.65625 35.9375 " transform="matrix(1,0,0,1,0,48)"/>
<path style="fill-rule:nonzero;fill:rgb(99.998474%,99.998474%,99.998474%);fill-opacity:1;stroke-width:0.03;stroke-linecap:square;stroke-linejoin:miter;stroke:rgb(99.998474%,99.998474%,99.998474%);stroke-opacity:1;stroke-miterlimit:3.25;" d="M 115.117188 35.9375 L 130.578125 35.9375 L 130.578125 20.476562 L 115.117188 20.476562 Z M 115.117188 35.9375 " transform="matrix(1,0,0,1,0,48)"/>
<path style="fill-rule:nonzero;fill:rgb(99.998474%,99.998474%,99.998474%);fill-opacity:1;stroke-width:0.03;stroke-linecap:square;stroke-linejoin:miter;stroke:rgb(99.998474%,99.998474%,99.998474%);stroke-opacity:1;stroke-miterlimit:3.25;" d="M 130.578125 35.9375 L 146.039062 35.9375 L 146.039062 20.476562 L 130.578125 20.476562 Z M 130.578125 35.9375 " transform="matrix(1,0,0,1,0,48)"/>
<path style="fill-rule:nonzero;fill:rgb(99.998474%,99.998474%,99.998474%);fill-opacity:1;stroke-width:0.03;stroke-linecap:square;stroke-linejoin:miter;stroke:rgb(99.998474%,99.998474%,99.998474%);stroke-opacity:1;stroke-miterlimit:3.25;" d="M 146.039062 35.9375 L 161.5 35.9375 L 161.5 20.476562 L 146.039062 20.476562 Z M 146.039062 35.9375 " transform="matrix(1,0,0,1,0,48)"/>
<path style="fill-rule:nonzero;fill:rgb(99.998474%,99.998474%,99.998474%);fill-opacity:1;stroke-width:0.03;stroke-linecap:square;stroke-linejoin:miter;stroke:rgb(99.998474%,99.998474%,99.998474%);stroke-opacity:1;stroke-miterlimit:3.25;" d="M 161.5 35.9375 L 176.960938 35.9375 L 176.960938 20.476562 L 161.5 20.476562 Z M 161.5 35.9375 " transform="matrix(1,0,0,1,0,48)"/>
<path style="fill-rule:nonzero;fill:rgb(99.998474%,99.998474%,99.998474%);fill-opacity:1;stroke-width:0.03;stroke-linecap:square;stroke-linejoin:miter;stroke:rgb(99.998474%,99.998474%,99.998474%);stroke-opacity:1;stroke-miterlimit:3.25;" d="M 176.960938 35.9375 L 192.421875 35.9375 L 192.421875 20.476562 L 176.960938 20.476562 Z M 176.960938 35.9375 " transform="matrix(1,0,0,1,0,48)"/>
<path style="fill-rule:nonzero;fill:rgb(99.998474%,99.998474%,99.998474%);fill-opacity:1;stroke-width:0.03;stroke-linecap:square;stroke-linejoin:miter;stroke:rgb(99.998474%,99.998474%,99.998474%);stroke-opacity:1;stroke-miterlimit:3.25;" d="M 192.421875 35.9375 L 207.882812 35.9375 L 207.882812 20.476562 L 192.421875 20.476562 Z M 192.421875 35.9375 " transform="matrix(1,0,0,1,0,48)"/>
<path style="fill-rule:nonzero;fill:rgb(99.998474%,99.998474%,99.998474%);fill-opacity:1;stroke-width:0.03;stroke-linecap:square;stroke-linejoin:miter;stroke:rgb(99.998474%,99.998474%,99.998474%);stroke-opacity:1;stroke-miterlimit:3.25;" d="M 207.882812 35.9375 L 223.34375 35.9375 L 223.34375 20.476562 L 207.882812 20.476562 Z M 207.882812 35.9375 " transform="matrix(1,0,0,1,0,48)"/>
<path style="fill-rule:nonzero;fill:rgb(99.998474%,99.998474%,99.998474%);fill-opacity:1;stroke-width:0.03;stroke-linecap:square;stroke-linejoin:miter;stroke:rgb(99.998474%,99.998474%,99.998474%);stroke-opacity:1;stroke-miterlimit:3.25;" d="M 223.34375 35.9375 L 238.804688 35.9375 L 238.804688 20.476562 L 223.34375 20.476562 Z M 223.34375 35.9375 " transform="matrix(1,0,0,1,0,48)"/>
<path style="fill-rule:nonzero;fill:rgb(99.998474%,99.998474%,99.998474%);fill-opacity:1;stroke-width:0.03;stroke-linecap:square;stroke-linejoin:miter;stroke:rgb(99.998474%,99.998474%,99.998474%);stroke-opacity:1;stroke-miterlimit:3.25;" d="M 238.804688 35.9375 L 254.265625 35.9375 L 254.265625 20.476562 L 238.804688 20.476562 Z M 238.804688 35.9375 " transform="matrix(1,0,0,1,0,48)"/>
<path style="fill-rule:nonzero;fill:rgb(99.998474%,99.998474%,99.998474%);fill-opacity:1;stroke-width:0.03;stroke-linecap:square;stroke-linejoin:miter;stroke:rgb(99.998474%,99.998474%,99.998474%);stroke-opacity:1;stroke-miterlimit:3.25;" d="M 254.265625 35.9375 L 269.726562 35.9375 L 269.726562 20.476562 L 254.265625 20.476562 Z M 254.265625 35.9375 " transform="matrix(1,0,0,1,0,48)"/>
<path style="fill-rule:nonzero;fill:rgb(99.998474%,99.998474%,99.998474%);fill-opacity:1;stroke-width:0.03;stroke-linecap:square;stroke-linejoin:miter;stroke:rgb(99.998474%,99.998474%,99.998474%);stroke-opacity:1;stroke-miterlimit:3.25;" d="M 269.726562 35.9375 L 285.1875 35.9375 L 285.1875 20.476562 L 269.726562 20.476562 Z M 269.726562 35.9375 " transform="matrix(1,0,0,1,0,48)"/>
<path style="fill-rule:nonzero;fill:rgb(99.998474%,99.998474%,99.998474%);fill-opacity:1;stroke-width:0.03;stroke-linecap:square;stroke-linejoin:miter;stroke:rgb(99.998474%,99.998474%,99.998474%);stroke-opacity:1;stroke-miterlimit:3.25;" d="M 285.1875 35.9375 L 300.648438 35.9375 L 300.648438 20.476562 L 285.1875 20.476562 Z M 285.1875 35.9375 " transform="matrix(1,0,0,1,0,48)"/>
<path style="fill-rule:nonzero;fill:rgb(99.998474%,99.998474%,99.998474%);fill-opacity:1;stroke-width:0.03;stroke-linecap:square;stroke-linejoin:miter;stroke:rgb(99.998474%,99.998474%,99.998474%);stroke-opacity:1;stroke-miterlimit:3.25;" d="M 300.648438 35.9375 L 316.109375 35.9375 L 316.109375 20.476562 L 300.648438 20.476562 Z M 300.648438 35.9375 " transform="matrix(1,0,0,1,0,48)"/>
<path style="fill-rule:nonzero;fill:rgb(99.998474%,99.998474%,99.998474%);fill-opacity:1;stroke-width:0.03;stroke-linecap:square;stroke-linejoin:miter;stroke:rgb(99.998474%,99.998474%,99.998474%);stroke-opacity:1;stroke-miterlimit:3.25;" d="M 6.890625 20.476562 L 22.351562 20.476562 L 22.351562 5.015625 L 6.890625 5.015625 Z M 6.890625 20.476562 " transform="matrix(1,0,0,1,0,48)"/>
<path style="fill-rule:nonzero;fill:rgb(99.998474%,99.998474%,99.998474%);fill-opacity:1;stroke-width:0.03;stroke-linecap:square;stroke-linejoin:miter;stroke:rgb(99.998474%,99.998474%,99.998474%);stroke-opacity:1;stroke-miterlimit:3.25;" d="M 22.351562 20.476562 L 37.8125 20.476562 L 37.8125 5.015625 L 22.351562 5.015625 Z M 22.351562 20.476562 " transform="matrix(1,0,0,1,0,48)"/>
<path style="fill-rule:nonzero;fill:rgb(99.998474%,99.998474%,99.998474%);fill-opacity:1;stroke-width:0.03;stroke-linecap:square;stroke-linejoin:miter;stroke:rgb(99.998474%,99.998474%,99.998474%);stroke-opacity:1;stroke-miterlimit:3.25;" d="M 37.8125 20.476562 L 53.273438 20.476562 L 53.273438 5.015625 L 37.8125 5.015625 Z M 37.8125 20.476562 " transform="matrix(1,0,0,1,0,48)"/>
<path style="fill-rule:nonzero;fill:rgb(99.998474%,99.998474%,99.998474%);fill-opacity:1;stroke-width:0.03;stroke-linecap:square;stroke-linejoin:miter;stroke:rgb(99.998474%,99.998474%,99.998474%);stroke-opacity:1;stroke-miterlimit:3.25;" d="M 53.273438 20.476562 L 68.734375 20.476562 L 68.734375 5.015625 L 53.273438 5.015625 Z M 53.273438 20.476562 " transform="matrix(1,0,0,1,0,48)"/>
<path style="fill-rule:nonzero;fill:rgb(99.998474%,99.998474%,99.998474%);fill-opacity:1;stroke-width:0.03;stroke-linecap:square;stroke-linejoin:miter;stroke:rgb(99.998474%,99.998474%,99.998474%);stroke-opacity:1;stroke-miterlimit:3.25;" d="M 68.734375 20.476562 L 84.195312 20.476562 L 84.195312 5.015625 L 68.734375 5.015625 Z M 68.734375 20.476562 " transform="matrix(1,0,0,1,0,48)"/>
<path style="fill-rule:nonzero;fill:rgb(99.998474%,99.998474%,99.998474%);fill-opacity:1;stroke-width:0.03;stroke-linecap:square;stroke-linejoin:miter;stroke:rgb(99.998474%,99.998474%,99.998474%);stroke-opacity:1;stroke-miterlimit:3.25;" d="M 84.195312 20.476562 L 99.65625 20.476562 L 99.65625 5.015625 L 84.195312 5.015625 Z M 84.195312 20.476562 " transform="matrix(1,0,0,1,0,48)"/>
<path style="fill-rule:nonzero;fill:rgb(99.998474%,99.998474%,99.998474%);fill-opacity:1;stroke-width:0.03;stroke-linecap:square;stroke-linejoin:miter;stroke:rgb(99.998474%,99.998474%,99.998474%);stroke-opacity:1;stroke-miterlimit:3.25;" d="M 99.65625 20.476562 L 115.117188 20.476562 L 115.117188 5.015625 L 99.65625 5.015625 Z M 99.65625 20.476562 " transform="matrix(1,0,0,1,0,48)"/>
<path style="fill-rule:nonzero;fill:rgb(99.998474%,99.998474%,99.998474%);fill-opacity:1;stroke-width:0.03;stroke-linecap:square;stroke-linejoin:miter;stroke:rgb(99.998474%,99.998474%,99.998474%);stroke-opacity:1;stroke-miterlimit:3.25;" d="M 115.117188 20.476562 L 130.578125 20.476562 L 130.578125 5.015625 L 115.117188 5.015625 Z M 115.117188 20.476562 " transform="matrix(1,0,0,1,0,48)"/>
<path style="fill-rule:nonzero;fill:rgb(99.998474%,99.998474%,99.998474%);fill-opacity:1;stroke-width:0.03;stroke-linecap:square;stroke-linejoin:miter;stroke:rgb(99.998474%,99.998474%,99.998474%);stroke-opacity:1;stroke-miterlimit:3.25;" d="M 130.578125 20.476562 L 146.039062 20.476562 L 146.039062 5.015625 L 130.578125 5.015625 Z M 130.578125 20.476562 " transform="matrix(1,0,0,1,0,48)"/>
<path style="fill-rule:nonzero;fill:rgb(99.998474%,99.998474%,99.998474%);fill-opacity:1;stroke-width:0.03;stroke-linecap:square;stroke-linejoin:miter;stroke:rgb(99.998474%,99.998474%,99.998474%);stroke-opacity:1;stroke-miterlimit:3.25;" d="M 146.039062 20.476562 L 161.5 20.476562 L 161.5 5.015625 L 146.039062 5.015625 Z M 146.039062 20.476562 " transform="matrix(1,0,0,1,0,48)"/>
<path style="fill-rule:nonzero;fill:rgb(99.998474%,99.998474%,99.998474%);fill-opacity:1;stroke-width:0.03;stroke-linecap:square;stroke-linejoin:miter;stroke:rgb(99.998474%,99.998474%,99.998474%);stroke-opacity:1;stroke-miterlimit:3.25;" d="M 161.5 20.476562 L 176.960938 20.476562 L 176.960938 5.015625 L 161.5 5.015625 Z M 161.5 20.476562 " transform="matrix(1,0,0,1,0,48)"/>
<path style="fill-rule:nonzero;fill:rgb(99.998474%,99.998474%,99.998474%);fill-opacity:1;stroke-width:0.03;stroke-linecap:square;stroke-linejoin:miter;stroke:rgb(99.998474%,99.998474%,99.998474%);stroke-opacity:1;stroke-miterlimit:3.25;" d="M 176.960938 20.476562 L 192.421875 20.476562 L 192.421875 5.015625 L 176.960938 5.015625 Z M 176.960938 20.476562 " transform="matrix(1,0,0,1,0,48)"/>
<path style="fill-rule:nonzero;fill:rgb(99.998474%,99.998474%,99.998474%);fill-opacity:1;stroke-width:0.03;stroke-linecap:square;stroke-linejoin:miter;stroke:rgb(99.998474%,99.998474%,99.998474%);stroke-opacity:1;stroke-miterlimit:3.25;" d="M 192.421875 20.476562 L 207.882812 20.476562 L 207.882812 5.015625 L 192.421875 5.015625 Z M 192.421875 20.476562 " transform="matrix(1,0,0,1,0,48)"/>
<path style="fill-rule:nonzero;fill:rgb(99.998474%,99.998474%,99.998474%);fill-opacity:1;stroke-width:0.03;stroke-linecap:square;stroke-linejoin:miter;stroke:rgb(99.998474%,99.998474%,99.998474%);stroke-opacity:1;stroke-miterlimit:3.25;" d="M 207.882812 20.476562 L 223.34375 20.476562 L 223.34375 5.015625 L 207.882812 5.015625 Z M 207.882812 20.476562 " transform="matrix(1,0,0,1,0,48)"/>
<path style="fill-rule:nonzero;fill:rgb(99.998474%,99.998474%,99.998474%);fill-opacity:1;stroke-width:0.03;stroke-linecap:square;stroke-linejoin:miter;stroke:rgb(99.998474%,99.998474%,99.998474%);stroke-opacity:1;stroke-miterlimit:3.25;" d="M 223.34375 20.476562 L 238.804688 20.476562 L 238.804688 5.015625 L 223.34375 5.015625 Z M 223.34375 20.476562 " transform="matrix(1,0,0,1,0,48)"/>
<path style="fill-rule:nonzero;fill:rgb(99.998474%,99.998474%,99.998474%);fill-opacity:1;stroke-width:0.03;stroke-linecap:square;stroke-linejoin:miter;stroke:rgb(99.998474%,99.998474%,99.998474%);stroke-opacity:1;stroke-miterlimit:3.25;" d="M 238.804688 20.476562 L 254.265625 20.476562 L 254.265625 5.015625 L 238.804688 5.015625 Z M 238.804688 20.476562 " transform="matrix(1,0,0,1,0,48)"/>
<path style="fill-rule:nonzero;fill:rgb(99.998474%,99.998474%,99.998474%);fill-opacity:1;stroke-width:0.03;stroke-linecap:square;stroke-linejoin:miter;stroke:rgb(99.998474%,99.998474%,99.998474%);stroke-opacity:1;stroke-miterlimit:3.25;" d="M 254.265625 20.476562 L 269.726562 20.476562 L 269.726562 5.015625 L 254.265625 5.015625 Z M 254.265625 20.476562 " transform="matrix(1,0,0,1,0,48)"/>
<path style="fill-rule:nonzero;fill:rgb(99.998474%,99.998474%,99.998474%);fill-opacity:1;stroke-width:0.03;stroke-linecap:square;stroke-linejoin:miter;stroke:rgb(99.998474%,99.998474%,99.998474%);stroke-opacity:1;stroke-miterlimit:3.25;" d="M 269.726562 20.476562 L 285.1875 20.476562 L 285.1875 5.015625 L 269.726562 5.015625 Z M 269.726562 20.476562 " transform="matrix(1,0,0,1,0,48)"/>
<path style="fill-rule:nonzero;fill:rgb(99.998474%,99.998474%,99.998474%);fill-opacity:1;stroke-width:0.03;stroke-linecap:square;stroke-linejoin:miter;stroke:rgb(99.998474%,99.998474%,99.998474%);stroke-opacity:1;stroke-miterlimit:3.25;" d="M 285.1875 20.476562 L 300.648438 20.476562 L 300.648438 5.015625 L 285.1875 5.015625 Z M 285.1875 20.476562 " transform="matrix(1,0,0,1,0,48)"/>
<path style="fill-rule:nonzero;fill:rgb(99.998474%,99.998474%,99.998474%);fill-opacity:1;stroke-width:0.03;stroke-linecap:square;stroke-linejoin:miter;stroke:rgb(99.998474%,99.998474%,99.998474%);stroke-opacity:1;stroke-miterlimit:3.25;" d="M 300.648438 20.476562 L 316.109375 20.476562 L 316.109375 5.015625 L 300.648438 5.015625 Z M 300.648438 20.476562 " transform="matrix(1,0,0,1,0,48)"/>
<path style="fill-rule:nonzero;fill:rgb(99.998474%,99.998474%,99.998474%);fill-opacity:1;stroke-width:0.03;stroke-linecap:square;stroke-linejoin:miter;stroke:rgb(99.998474%,99.998474%,99.998474%);stroke-opacity:1;stroke-miterlimit:3.25;" d="M 6.890625 5.015625 L 22.351562 5.015625 L 22.351562 -10.445312 L 6.890625 -10.445312 Z M 6.890625 5.015625 " transform="matrix(1,0,0,1,0,48)"/>
<path style="fill-rule:nonzero;fill:rgb(99.998474%,99.998474%,99.998474%);fill-opacity:1;stroke-width:0.03;stroke-linecap:square;stroke-linejoin:miter;stroke:rgb(99.998474%,99.998474%,99.998474%);stroke-opacity:1;stroke-miterlimit:3.25;" d="M 22.351562 5.015625 L 37.8125 5.015625 L 37.8125 -10.445312 L 22.351562 -10.445312 Z M 22.351562 5.015625 " transform="matrix(1,0,0,1,0,48)"/>
<path style="fill-rule:nonzero;fill:rgb(99.998474%,99.998474%,99.998474%);fill-opacity:1;stroke-width:0.03;stroke-linecap:square;stroke-linejoin:miter;stroke:rgb(99.998474%,99.998474%,99.998474%);stroke-opacity:1;stroke-miterlimit:3.25;" d="M 37.8125 5.015625 L 53.273438 5.015625 L 53.273438 -10.445312 L 37.8125 -10.445312 Z M 37.8125 5.015625 " transform="matrix(1,0,0,1,0,48)"/>
<path style="fill-rule:nonzero;fill:rgb(99.998474%,99.998474%,99.998474%);fill-opacity:1;stroke-width:0.03;stroke-linecap:square;stroke-linejoin:miter;stroke:rgb(99.998474%,99.998474%,99.998474%);stroke-opacity:1;stroke-miterlimit:3.25;" d="M 53.273438 5.015625 L 68.734375 5.015625 L 68.734375 -10.445312 L 53.273438 -10.445312 Z M 53.273438 5.015625 " transform="matrix(1,0,0,1,0,48)"/>
<path style="fill-rule:nonzero;fill:rgb(99.998474%,99.998474%,99.998474%);fill-opacity:1;stroke-width:0.03;stroke-linecap:square;stroke-linejoin:miter;stroke:rgb(99.998474%,99.998474%,99.998474%);stroke-opacity:1;stroke-miterlimit:3.25;" d="M 68.734375 5.015625 L 84.195312 5.015625 L 84.195312 -10.445312 L 68.734375 -10.445312 Z M 68.734375 5.015625 " transform="matrix(1,0,0,1,0,48)"/>
<path style="fill-rule:nonzero;fill:rgb(99.998474%,99.998474%,99.998474%);fill-opacity:1;stroke-width:0.03;stroke-linecap:square;stroke-linejoin:miter;stroke:rgb(99.998474%,99.998474%,99.998474%);stroke-opacity:1;stroke-miterlimit:3.25;" d="M 84.195312 5.015625 L 99.65625 5.015625 L 99.65625 -10.445312 L 84.195312 -10.445312 Z M 84.195312 5.015625 " transform="matrix(1,0,0,1,0,48)"/>
<path style="fill-rule:nonzero;fill:rgb(99.998474%,99.998474%,99.998474%);fill-opacity:1;stroke-width:0.03;stroke-linecap:square;stroke-linejoin:miter;stroke:rgb(99.998474%,99.998474%,99.998474%);stroke-opacity:1;stroke-miterlimit:3.25;" d="M 99.65625 5.015625 L 115.117188 5.015625 L 115.117188 -10.445312 L 99.65625 -10.445312 Z M 99.65625 5.015625 " transform="matrix(1,0,0,1,0,48)"/>
<path style="fill-rule:nonzero;fill:rgb(99.998474%,99.998474%,99.998474%);fill-opacity:1;stroke-width:0.03;stroke-linecap:square;stroke-linejoin:miter;stroke:rgb(99.998474%,99.998474%,99.998474%);stroke-opacity:1;stroke-miterlimit:3.25;" d="M 115.117188 5.015625 L 130.578125 5.015625 L 130.578125 -10.445312 L 115.117188 -10.445312 Z M 115.117188 5.015625 " transform="matrix(1,0,0,1,0,48)"/>
<path style="fill-rule:nonzero;fill:rgb(99.998474%,99.998474%,99.998474%);fill-opacity:1;stroke-width:0.03;stroke-linecap:square;stroke-linejoin:miter;stroke:rgb(99.998474%,99.998474%,99.998474%);stroke-opacity:1;stroke-miterlimit:3.25;" d="M 130.578125 5.015625 L 146.039062 5.015625 L 146.039062 -10.445312 L 130.578125 -10.445312 Z M 130.578125 5.015625 " transform="matrix(1,0,0,1,0,48)"/>
<path style="fill-rule:nonzero;fill:rgb(99.998474%,99.998474%,99.998474%);fill-opacity:1;stroke-width:0.03;stroke-linecap:square;stroke-linejoin:miter;stroke:rgb(99.998474%,99.998474%,99.998474%);stroke-opacity:1;stroke-miterlimit:3.25;" d="M 146.039062 5.015625 L 161.5 5.015625 L 161.5 -10.445312 L 146.039062 -10.445312 Z M 146.039062 5.015625 " transform="matrix(1,0,0,1,0,48)"/>
<path style="fill-rule:nonzero;fill:rgb(99.998474%,99.998474%,99.998474%);fill-opacity:1;stroke-width:0.03;stroke-linecap:square;stroke-linejoin:miter;stroke:rgb(99.998474%,99.998474%,99.998474%);stroke-opacity:1;stroke-miterlimit:3.25;" d="M 161.5 5.015625 L 176.960938 5.015625 L 176.960938 -10.445312 L 161.5 -10.445312 Z M 161.5 5.015625 " transform="matrix(1,0,0,1,0,48)"/>
<path style="fill-rule:nonzero;fill:rgb(99.998474%,99.998474%,99.998474%);fill-opacity:1;stroke-width:0.03;stroke-linecap:square;stroke-linejoin:miter;stroke:rgb(99.998474%,99.998474%,99.998474%);stroke-opacity:1;stroke-miterlimit:3.25;" d="M 176.960938 5.015625 L 192.421875 5.015625 L 192.421875 -10.445312 L 176.960938 -10.445312 Z M 176.960938 5.015625 " transform="matrix(1,0,0,1,0,48)"/>
<path style="fill-rule:nonzero;fill:rgb(99.998474%,99.998474%,99.998474%);fill-opacity:1;stroke-width:0.03;stroke-linecap:square;stroke-linejoin:miter;stroke:rgb(99.998474%,99.998474%,99.998474%);stroke-opacity:1;stroke-miterlimit:3.25;" d="M 192.421875 5.015625 L 207.882812 5.015625 L 207.882812 -10.445312 L 192.421875 -10.445312 Z M 192.421875 5.015625 " transform="matrix(1,0,0,1,0,48)"/>
<path style="fill-rule:nonzero;fill:rgb(99.998474%,99.998474%,99.998474%);fill-opacity:1;stroke-width:0.03;stroke-linecap:square;stroke-linejoin:miter;stroke:rgb(99.998474%,99.998474%,99.998474%);stroke-opacity:1;stroke-miterlimit:3.25;" d="M 207.882812 5.015625 L 223.34375 5.015625 L 223.34375 -10.445312 L 207.882812 -10.445312 Z M 207.882812 5.015625 " transform="matrix(1,0,0,1,0,48)"/>
<path style="fill-rule:nonzero;fill:rgb(99.998474%,99.998474%,99.998474%);fill-opacity:1;stroke-width:0.03;stroke-linecap:square;stroke-linejoin:miter;stroke:rgb(99.998474%,99.998474%,99.998474%);stroke-opacity:1;stroke-miterlimit:3.25;" d="M 223.34375 5.015625 L 238.804688 5.015625 L 238.804688 -10.445312 L 223.34375 -10.445312 Z M 223.34375 5.015625 " transform="matrix(1,0,0,1,0,48)"/>
<path style="fill-rule:nonzero;fill:rgb(99.998474%,99.998474%,99.998474%);fill-opacity:1;stroke-width:0.03;stroke-linecap:square;stroke-linejoin:miter;stroke:rgb(99.998474%,99.998474%,99.998474%);stroke-opacity:1;stroke-miterlimit:3.25;" d="M 238.804688 5.015625 L 254.265625 5.015625 L 254.265625 -10.445312 L 238.804688 -10.445312 Z M 238.804688 5.015625 " transform="matrix(1,0,0,1,0,48)"/>
<path style="fill-rule:nonzero;fill:rgb(99.998474%,99.998474%,99.998474%);fill-opacity:1;stroke-width:0.03;stroke-linecap:square;stroke-linejoin:miter;stroke:rgb(99.998474%,99.998474%,99.998474%);stroke-opacity:1;stroke-miterlimit:3.25;" d="M 254.265625 5.015625 L 269.726562 5.015625 L 269.726562 -10.445312 L 254.265625 -10.445312 Z M 254.265625 5.015625 " transform="matrix(1,0,0,1,0,48)"/>
<path style="fill-rule:nonzero;fill:rgb(99.998474%,99.998474%,99.998474%);fill-opacity:1;stroke-width:0.03;stroke-linecap:square;stroke-linejoin:miter;stroke:rgb(99.998474%,99.998474%,99.998474%);stroke-opacity:1;stroke-miterlimit:3.25;" d="M 269.726562 5.015625 L 285.1875 5.015625 L 285.1875 -10.445312 L 269.726562 -10.445312 Z M 269.726562 5.015625 " transform="matrix(1,0,0,1,0,48)"/>
<path style="fill-rule:nonzero;fill:rgb(99.998474%,99.998474%,99.998474%);fill-opacity:1;stroke-width:0.03;stroke-linecap:square;stroke-linejoin:miter;stroke:rgb(99.998474%,99.998474%,99.998474%);stroke-opacity:1;stroke-miterlimit:3.25;" d="M 285.1875 5.015625 L 300.648438 5.015625 L 300.648438 -10.445312 L 285.1875 -10.445312 Z M 285.1875 5.015625 " transform="matrix(1,0,0,1,0,48)"/>
<path style="fill-rule:nonzero;fill:rgb(99.998474%,99.998474%,99.998474%);fill-opacity:1;stroke-width:0.03;stroke-linecap:square;stroke-linejoin:miter;stroke:rgb(99.998474%,99.998474%,99.998474%);stroke-opacity:1;stroke-miterlimit:3.25;" d="M 300.648438 5.015625 L 316.109375 5.015625 L 316.109375 -10.445312 L 300.648438 -10.445312 Z M 300.648438 5.015625 " transform="matrix(1,0,0,1,0,48)"/>
<path style="fill-rule:nonzero;fill:rgb(99.998474%,99.998474%,99.998474%);fill-opacity:1;stroke-width:0.03;stroke-linecap:square;stroke-linejoin:miter;stroke:rgb(99.998474%,99.998474%,99.998474%);stroke-opacity:1;stroke-miterlimit:3.25;" d="M 6.890625 -10.445312 L 22.351562 -10.445312 L 22.351562 -25.90625 L 6.890625 -25.90625 Z M 6.890625 -10.445312 " transform="matrix(1,0,0,1,0,48)"/>
<path style="fill-rule:nonzero;fill:rgb(99.998474%,99.998474%,99.998474%);fill-opacity:1;stroke-width:0.03;stroke-linecap:square;stroke-linejoin:miter;stroke:rgb(99.998474%,99.998474%,99.998474%);stroke-opacity:1;stroke-miterlimit:3.25;" d="M 22.351562 -10.445312 L 37.8125 -10.445312 L 37.8125 -25.90625 L 22.351562 -25.90625 Z M 22.351562 -10.445312 " transform="matrix(1,0,0,1,0,48)"/>
<path style="fill-rule:nonzero;fill:rgb(99.998474%,99.998474%,99.998474%);fill-opacity:1;stroke-width:0.03;stroke-linecap:square;stroke-linejoin:miter;stroke:rgb(99.998474%,99.998474%,99.998474%);stroke-opacity:1;stroke-miterlimit:3.25;" d="M 37.8125 -10.445312 L 53.273438 -10.445312 L 53.273438 -25.90625 L 37.8125 -25.90625 Z M 37.8125 -10.445312 " transform="matrix(1,0,0,1,0,48)"/>
<path style="fill-rule:nonzero;fill:rgb(99.998474%,99.998474%,99.998474%);fill-opacity:1;stroke-width:0.03;stroke-linecap:square;stroke-linejoin:miter;stroke:rgb(99.998474%,99.998474%,99.998474%);stroke-opacity:1;stroke-miterlimit:3.25;" d="M 53.273438 -10.445312 L 68.734375 -10.445312 L 68.734375 -25.90625 L 53.273438 -25.90625 Z M 53.273438 -10.445312 " transform="matrix(1,0,0,1,0,48)"/>
<path style="fill-rule:nonzero;fill:rgb(0%,0%,0%);fill-opacity:1;stroke-width:0.03;stroke-linecap:square;stroke-linejoin:miter;stroke:rgb(0%,0%,0%);stroke-opacity:1;stroke-miterlimit:3.25;" d="M 68.734375 -10.445312 L 84.195312 -10.445312 L 84.195312 -25.90625 L 68.734375 -25.90625 Z M 68.734375 -10.445312 " transform="matrix(1,0,0,1,0,48)"/>
<path style="fill-rule:nonzero;fill:rgb(0%,0%,0%);fill-opacity:1;stroke-width:0.03;stroke-linecap:square;stroke-linejoin:miter;stroke:rgb(0%,0%,0%);stroke-opacity:1;stroke-miterlimit:3.25;" d="M 84.195312 -10.445312 L 99.65625 -10.445312 L 99.65625 -25.90625 L 84.195312 -25.90625 Z M 84.195312 -10.445312 " transform="matrix(1,0,0,1,0,48)"/>
<path style="fill-rule:nonzero;fill:rgb(99.998474%,99.998474%,99.998474%);fill-opacity:1;stroke-width:0.03;stroke-linecap:square;stroke-linejoin:miter;stroke:rgb(99.998474%,99.998474%,99.998474%);stroke-opacity:1;stroke-miterlimit:3.25;" d="M 99.65625 -10.445312 L 115.117188 -10.445312 L 115.117188 -25.90625 L 99.65625 -25.90625 Z M 99.65625 -10.445312 " transform="matrix(1,0,0,1,0,48)"/>
<path style="fill-rule:nonzero;fill:rgb(99.998474%,99.998474%,99.998474%);fill-opacity:1;stroke-width:0.03;stroke-linecap:square;stroke-linejoin:miter;stroke:rgb(99.998474%,99.998474%,99.998474%);stroke-opacity:1;stroke-miterlimit:3.25;" d="M 115.117188 -10.445312 L 130.578125 -10.445312 L 130.578125 -25.90625 L 115.117188 -25.90625 Z M 115.117188 -10.445312 " transform="matrix(1,0,0,1,0,48)"/>
<path style="fill-rule:nonzero;fill:rgb(99.998474%,99.998474%,99.998474%);fill-opacity:1;stroke-width:0.03;stroke-linecap:square;stroke-linejoin:miter;stroke:rgb(99.998474%,99.998474%,99.998474%);stroke-opacity:1;stroke-miterlimit:3.25;" d="M 130.578125 -10.445312 L 146.039062 -10.445312 L 146.039062 -25.90625 L 130.578125 -25.90625 Z M 130.578125 -10.445312 " transform="matrix(1,0,0,1,0,48)"/>
<path style="fill-rule:nonzero;fill:rgb(99.998474%,99.998474%,99.998474%);fill-opacity:1;stroke-width:0.03;stroke-linecap:square;stroke-linejoin:miter;stroke:rgb(99.998474%,99.998474%,99.998474%);stroke-opacity:1;stroke-miterlimit:3.25;" d="M 146.039062 -10.445312 L 161.5 -10.445312 L 161.5 -25.90625 L 146.039062 -25.90625 Z M 146.039062 -10.445312 " transform="matrix(1,0,0,1,0,48)"/>
<path style="fill-rule:nonzero;fill:rgb(99.998474%,99.998474%,99.998474%);fill-opacity:1;stroke-width:0.03;stroke-linecap:square;stroke-linejoin:miter;stroke:rgb(99.998474%,99.998474%,99.998474%);stroke-opacity:1;stroke-miterlimit:3.25;" d="M 161.5 -10.445312 L 176.960938 -10.445312 L 176.960938 -25.90625 L 161.5 -25.90625 Z M 161.5 -10.445312 " transform="matrix(1,0,0,1,0,48)"/>
<path style="fill-rule:nonzero;fill:rgb(99.998474%,99.998474%,99.998474%);fill-opacity:1;stroke-width:0.03;stroke-linecap:square;stroke-linejoin:miter;stroke:rgb(99.998474%,99.998474%,99.998474%);stroke-opacity:1;stroke-miterlimit:3.25;" d="M 176.960938 -10.445312 L 192.421875 -10.445312 L 192.421875 -25.90625 L 176.960938 -25.90625 Z M 176.960938 -10.445312 " transform="matrix(1,0,0,1,0,48)"/>
<path style="fill-rule:nonzero;fill:rgb(99.998474%,99.998474%,99.998474%);fill-opacity:1;stroke-width:0.03;stroke-linecap:square;stroke-linejoin:miter;stroke:rgb(99.998474%,99.998474%,99.998474%);stroke-opacity:1;stroke-miterlimit:3.25;" d="M 192.421875 -10.445312 L 207.882812 -10.445312 L 207.882812 -25.90625 L 192.421875 -25.90625 Z M 192.421875 -10.445312 " transform="matrix(1,0,0,1,0,48)"/>
<path style="fill-rule:nonzero;fill:rgb(99.998474%,99.998474%,99.998474%);fill-opacity:1;stroke-width:0.03;stroke-linecap:square;stroke-linejoin:miter;stroke:rgb(99.998474%,99.998474%,99.998474%);stroke-opacity:1;stroke-miterlimit:3.25;" d="M 207.882812 -10.445312 L 223.34375 -10.445312 L 223.34375 -25.90625 L 207.882812 -25.90625 Z M 207.882812 -10.445312 " transform="matrix(1,0,0,1,0,48)"/>
<path style="fill-rule:nonzero;fill:rgb(99.998474%,99.998474%,99.998474%);fill-opacity:1;stroke-width:0.03;stroke-linecap:square;stroke-linejoin:miter;stroke:rgb(99.998474%,99.998474%,99.998474%);stroke-opacity:1;stroke-miterlimit:3.25;" d="M 223.34375 -10.445312 L 238.804688 -10.445312 L 238.804688 -25.90625 L 223.34375 -25.90625 Z M 223.34375 -10.445312 " transform="matrix(1,0,0,1,0,48)"/>
<path style="fill-rule:nonzero;fill:rgb(99.998474%,99.998474%,99.998474%);fill-opacity:1;stroke-width:0.03;stroke-linecap:square;stroke-linejoin:miter;stroke:rgb(99.998474%,99.998474%,99.998474%);stroke-opacity:1;stroke-miterlimit:3.25;" d="M 238.804688 -10.445312 L 254.265625 -10.445312 L 254.265625 -25.90625 L 238.804688 -25.90625 Z M 238.804688 -10.445312 " transform="matrix(1,0,0,1,0,48)"/>
<path style="fill-rule:nonzero;fill:rgb(99.998474%,99.998474%,99.998474%);fill-opacity:1;stroke-width:0.03;stroke-linecap:square;stroke-linejoin:miter;stroke:rgb(99.998474%,99.998474%,99.998474%);stroke-opacity:1;stroke-miterlimit:3.25;" d="M 254.265625 -10.445312 L 269.726562 -10.445312 L 269.726562 -25.90625 L 254.265625 -25.90625 Z M 254.265625 -10.445312 " transform="matrix(1,0,0,1,0,48)"/>
<path style="fill-rule:nonzero;fill:rgb(99.998474%,99.998474%,99.998474%);fill-opacity:1;stroke-width:0.03;stroke-linecap:square;stroke-linejoin:miter;stroke:rgb(99.998474%,99.998474%,99.998474%);stroke-opacity:1;stroke-miterlimit:3.25;" d="M 269.726562 -10.445312 L 285.1875 -10.445312 L 285.1875 -25.90625 L 269.726562 -25.90625 Z M 269.726562 -10.445312 " transform="matrix(1,0,0,1,0,48)"/>
<path style="fill-rule:nonzero;fill:rgb(99.998474%,99.998474%,99.998474%);fill-opacity:1;stroke-width:0.03;stroke-linecap:square;stroke-linejoin:miter;stroke:rgb(99.998474%,99.998474%,99.998474%);stroke-opacity:1;stroke-miterlimit:3.25;" d="M 285.1875 -10.445312 L 300.648438 -10.445312 L 300.648438 -25.90625 L 285.1875 -25.90625 Z M 285.1875 -10.445312 " transform="matrix(1,0,0,1,0,48)"/>
<path style="fill-rule:nonzero;fill:rgb(99.998474%,99.998474%,99.998474%);fill-opacity:1;stroke-width:0.03;stroke-linecap:square;stroke-linejoin:miter;stroke:rgb(99.998474%,99.998474%,99.998474%);stroke-opacity:1;stroke-miterlimit:3.25;" d="M 300.648438 -10.445312 L 316.109375 -10.445312 L 316.109375 -25.90625 L 300.648438 -25.90625 Z M 300.648438 -10.445312 " transform="matrix(1,0,0,1,0,48)"/>
<path style="fill-rule:nonzero;fill:rgb(99.998474%,99.998474%,99.998474%);fill-opacity:1;stroke-width:0.03;stroke-linecap:square;stroke-linejoin:miter;stroke:rgb(99.998474%,99.998474%,99.998474%);stroke-opacity:1;stroke-miterlimit:3.25;" d="M 6.890625 -25.90625 L 22.351562 -25.90625 L 22.351562 -41.367188 L 6.890625 -41.367188 Z M 6.890625 -25.90625 " transform="matrix(1,0,0,1,0,48)"/>
<path style="fill-rule:nonzero;fill:rgb(0%,0%,0%);fill-opacity:1;stroke-width:0.03;stroke-linecap:square;stroke-linejoin:miter;stroke:rgb(0%,0%,0%);stroke-opacity:1;stroke-miterlimit:3.25;" d="M 22.351562 -25.90625 L 37.8125 -25.90625 L 37.8125 -41.367188 L 22.351562 -41.367188 Z M 22.351562 -25.90625 " transform="matrix(1,0,0,1,0,48)"/>
<path style="fill-rule:nonzero;fill:rgb(0%,0%,0%);fill-opacity:1;stroke-width:0.03;stroke-linecap:square;stroke-linejoin:miter;stroke:rgb(0%,0%,0%);stroke-opacity:1;stroke-miterlimit:3.25;" d="M 37.8125 -25.90625 L 53.273438 -25.90625 L 53.273438 -41.367188 L 37.8125 -41.367188 Z M 37.8125 -25.90625 " transform="matrix(1,0,0,1,0,48)"/>
<path style="fill-rule:nonzero;fill:rgb(99.998474%,99.998474%,99.998474%);fill-opacity:1;stroke-width:0.03;stroke-linecap:square;stroke-linejoin:miter;stroke:rgb(99.998474%,99.998474%,99.998474%);stroke-opacity:1;stroke-miterlimit:3.25;" d="M 53.273438 -25.90625 L 68.734375 -25.90625 L 68.734375 -41.367188 L 53.273438 -41.367188 Z M 53.273438 -25.90625 " transform="matrix(1,0,0,1,0,48)"/>
<path style="fill-rule:nonzero;fill:rgb(99.998474%,99.998474%,99.998474%);fill-opacity:1;stroke-width:0.03;stroke-linecap:square;stroke-linejoin:miter;stroke:rgb(99.998474%,99.998474%,99.998474%);stroke-opacity:1;stroke-miterlimit:3.25;" d="M 68.734375 -25.90625 L 84.195312 -25.90625 L 84.195312 -41.367188 L 68.734375 -41.367188 Z M 68.734375 -25.90625 " transform="matrix(1,0,0,1,0,48)"/>
<path style="fill-rule:nonzero;fill:rgb(0%,0%,0%);fill-opacity:1;stroke-width:0.03;stroke-linecap:square;stroke-linejoin:miter;stroke:rgb(0%,0%,0%);stroke-opacity:1;stroke-miterlimit:3.25;" d="M 84.195312 -25.90625 L 99.65625 -25.90625 L 99.65625 -41.367188 L 84.195312 -41.367188 Z M 84.195312 -25.90625 " transform="matrix(1,0,0,1,0,48)"/>
<path style="fill-rule:nonzero;fill:rgb(0%,0%,0%);fill-opacity:1;stroke-width:0.03;stroke-linecap:square;stroke-linejoin:miter;stroke:rgb(0%,0%,0%);stroke-opacity:1;stroke-miterlimit:3.25;" d="M 99.65625 -25.90625 L 115.117188 -25.90625 L 115.117188 -41.367188 L 99.65625 -41.367188 Z M 99.65625 -25.90625 " transform="matrix(1,0,0,1,0,48)"/>
<path style="fill-rule:nonzero;fill:rgb(0%,0%,0%);fill-opacity:1;stroke-width:0.03;stroke-linecap:square;stroke-linejoin:miter;stroke:rgb(0%,0%,0%);stroke-opacity:1;stroke-miterlimit:3.25;" d="M 115.117188 -25.90625 L 130.578125 -25.90625 L 130.578125 -41.367188 L 115.117188 -41.367188 Z M 115.117188 -25.90625 " transform="matrix(1,0,0,1,0,48)"/>
<path style="fill-rule:nonzero;fill:rgb(99.998474%,99.998474%,99.998474%);fill-opacity:1;stroke-width:0.03;stroke-linecap:square;stroke-linejoin:miter;stroke:rgb(99.998474%,99.998474%,99.998474%);stroke-opacity:1;stroke-miterlimit:3.25;" d="M 130.578125 -25.90625 L 146.039062 -25.90625 L 146.039062 -41.367188 L 130.578125 -41.367188 Z M 130.578125 -25.90625 " transform="matrix(1,0,0,1,0,48)"/>
<path style="fill-rule:nonzero;fill:rgb(99.998474%,99.998474%,99.998474%);fill-opacity:1;stroke-width:0.03;stroke-linecap:square;stroke-linejoin:miter;stroke:rgb(99.998474%,99.998474%,99.998474%);stroke-opacity:1;stroke-miterlimit:3.25;" d="M 146.039062 -25.90625 L 161.5 -25.90625 L 161.5 -41.367188 L 146.039062 -41.367188 Z M 146.039062 -25.90625 " transform="matrix(1,0,0,1,0,48)"/>
<path style="fill-rule:nonzero;fill:rgb(99.998474%,99.998474%,99.998474%);fill-opacity:1;stroke-width:0.03;stroke-linecap:square;stroke-linejoin:miter;stroke:rgb(99.998474%,99.998474%,99.998474%);stroke-opacity:1;stroke-miterlimit:3.25;" d="M 161.5 -25.90625 L 176.960938 -25.90625 L 176.960938 -41.367188 L 161.5 -41.367188 Z M 161.5 -25.90625 " transform="matrix(1,0,0,1,0,48)"/>
<path style="fill-rule:nonzero;fill:rgb(99.998474%,99.998474%,99.998474%);fill-opacity:1;stroke-width:0.03;stroke-linecap:square;stroke-linejoin:miter;stroke:rgb(99.998474%,99.998474%,99.998474%);stroke-opacity:1;stroke-miterlimit:3.25;" d="M 176.960938 -25.90625 L 192.421875 -25.90625 L 192.421875 -41.367188 L 176.960938 -41.367188 Z M 176.960938 -25.90625 " transform="matrix(1,0,0,1,0,48)"/>
<path style="fill-rule:nonzero;fill:rgb(0%,0%,0%);fill-opacity:1;stroke-width:0.03;stroke-linecap:square;stroke-linejoin:miter;stroke:rgb(0%,0%,0%);stroke-opacity:1;stroke-miterlimit:3.25;" d="M 192.421875 -25.90625 L 207.882812 -25.90625 L 207.882812 -41.367188 L 192.421875 -41.367188 Z M 192.421875 -25.90625 " transform="matrix(1,0,0,1,0,48)"/>
<path style="fill-rule:nonzero;fill:rgb(0%,0%,0%);fill-opacity:1;stroke-width:0.03;stroke-linecap:square;stroke-linejoin:miter;stroke:rgb(0%,0%,0%);stroke-opacity:1;stroke-miterlimit:3.25;" d="M 207.882812 -25.90625 L 223.34375 -25.90625 L 223.34375 -41.367188 L 207.882812 -41.367188 Z M 207.882812 -25.90625 " transform="matrix(1,0,0,1,0,48)"/>
<path style="fill-rule:nonzero;fill:rgb(99.998474%,99.998474%,99.998474%);fill-opacity:1;stroke-width:0.03;stroke-linecap:square;stroke-linejoin:miter;stroke:rgb(99.998474%,99.998474%,99.998474%);stroke-opacity:1;stroke-miterlimit:3.25;" d="M 223.34375 -25.90625 L 238.804688 -25.90625 L 238.804688 -41.367188 L 223.34375 -41.367188 Z M 223.34375 -25.90625 " transform="matrix(1,0,0,1,0,48)"/>
<path style="fill-rule:nonzero;fill:rgb(99.998474%,99.998474%,99.998474%);fill-opacity:1;stroke-width:0.03;stroke-linecap:square;stroke-linejoin:miter;stroke:rgb(99.998474%,99.998474%,99.998474%);stroke-opacity:1;stroke-miterlimit:3.25;" d="M 238.804688 -25.90625 L 254.265625 -25.90625 L 254.265625 -41.367188 L 238.804688 -41.367188 Z M 238.804688 -25.90625 " transform="matrix(1,0,0,1,0,48)"/>
<path style="fill-rule:nonzero;fill:rgb(0%,0%,0%);fill-opacity:1;stroke-width:0.03;stroke-linecap:square;stroke-linejoin:miter;stroke:rgb(0%,0%,0%);stroke-opacity:1;stroke-miterlimit:3.25;" d="M 254.265625 -25.90625 L 269.726562 -25.90625 L 269.726562 -41.367188 L 254.265625 -41.367188 Z M 254.265625 -25.90625 " transform="matrix(1,0,0,1,0,48)"/>
<path style="fill-rule:nonzero;fill:rgb(99.998474%,99.998474%,99.998474%);fill-opacity:1;stroke-width:0.03;stroke-linecap:square;stroke-linejoin:miter;stroke:rgb(99.998474%,99.998474%,99.998474%);stroke-opacity:1;stroke-miterlimit:3.25;" d="M 269.726562 -25.90625 L 285.1875 -25.90625 L 285.1875 -41.367188 L 269.726562 -41.367188 Z M 269.726562 -25.90625 " transform="matrix(1,0,0,1,0,48)"/>
<path style="fill-rule:nonzero;fill:rgb(99.998474%,99.998474%,99.998474%);fill-opacity:1;stroke-width:0.03;stroke-linecap:square;stroke-linejoin:miter;stroke:rgb(99.998474%,99.998474%,99.998474%);stroke-opacity:1;stroke-miterlimit:3.25;" d="M 285.1875 -25.90625 L 300.648438 -25.90625 L 300.648438 -41.367188 L 285.1875 -41.367188 Z M 285.1875 -25.90625 " transform="matrix(1,0,0,1,0,48)"/>
<path style="fill-rule:nonzero;fill:rgb(99.998474%,99.998474%,99.998474%);fill-opacity:1;stroke-width:0.03;stroke-linecap:square;stroke-linejoin:miter;stroke:rgb(99.998474%,99.998474%,99.998474%);stroke-opacity:1;stroke-miterlimit:3.25;" d="M 300.648438 -25.90625 L 316.109375 -25.90625 L 316.109375 -41.367188 L 300.648438 -41.367188 Z M 300.648438 -25.90625 " transform="matrix(1,0,0,1,0,48)"/>
<path style="fill:none;stroke-width:0.45;stroke-linecap:square;stroke-linejoin:miter;stroke:rgb(39.99939%,39.99939%,39.99939%);stroke-opacity:1;stroke-miterlimit:3.25;" d="M 381.550781 94.121094 L 59.449219 94.121094 " transform="matrix(1,0,0,1,-59,-4)"/>
<path style="fill:none;stroke-width:0.45;stroke-linecap:square;stroke-linejoin:miter;stroke:rgb(39.99939%,39.99939%,39.99939%);stroke-opacity:1;stroke-miterlimit:3.25;" d="M 59.449219 94.121094 L 59.449219 4.449219 " transform="matrix(1,0,0,1,-59,-4)"/>
<path style="fill:none;stroke-width:0.45;stroke-linecap:square;stroke-linejoin:miter;stroke:rgb(39.99939%,39.99939%,39.99939%);stroke-opacity:1;stroke-miterlimit:3.25;" d="M 59.449219 4.449219 L 381.550781 4.449219 " transform="matrix(1,0,0,1,-59,-4)"/>
<path style="fill:none;stroke-width:0.45;stroke-linecap:square;stroke-linejoin:miter;stroke:rgb(39.99939%,39.99939%,39.99939%);stroke-opacity:1;stroke-miterlimit:3.25;" d="M 381.550781 4.449219 L 381.550781 94.121094 " transform="matrix(1,0,0,1,-59,-4)"/>
</g>
</svg>
